HIERARCHY
ROOT Hips
{
 OFFSET 0.000000 0.000000 0.000000
 CHANNELS 6 Xposition Yposition Zposition Yrotation Xrotation Zrotation
 JOINT Chest
 {
  OFFSET 0.000000 12.778769 -0.025672
  CHANNELS 3 Yrotation Xrotation Zrotation
  JOINT Chest2
  {
   OFFSET 0.000000 9.048585 0.046633
   CHANNELS 3 Yrotation Xrotation Zrotation
   JOINT Chest3
   {
    OFFSET 0.000000 8.173956 0.000000
    CHANNELS 3 Yrotation Xrotation Zrotation
    JOINT Chest4
    {
     OFFSET 0.000000 8.173956 0.000000
     CHANNELS 3 Yrotation Xrotation Zrotation
     JOINT Neck
     {
      OFFSET 0.000000 11.254521 0.000000
      CHANNELS 3 Yrotation Xrotation Zrotation
      JOINT Head
      {
       OFFSET 0.000000 7.627541 0.110895
       CHANNELS 3 Yrotation Xrotation Zrotation
       End Site
       {
        OFFSET 0.000000 14.324091 0.057923
       }
      }
     }
     JOINT RightCollar
     {
      OFFSET -2.416021 6.309018 0.000000
      CHANNELS 3 Yrotation Xrotation Zrotation
      JOINT RightShoulder
      {
       OFFSET -12.309578 0.000000 0.000000
       CHANNELS 3 Yrotation Xrotation Zrotation
       JOINT RightElbow
       {
        OFFSET -26.817880 0.000000 0.000000
        CHANNELS 3 Yrotation Xrotation Zrotation
        JOINT RightWrist
        {
         OFFSET -22.046493 0.000000 0.005727
         CHANNELS 3 Yrotation Xrotation Zrotation
         End Site
         {
          OFFSET -16.516461 0.000000 0.000000
         }
        }
       }
      }
     }
     JOINT LeftCollar
     {
      OFFSET 2.416021 6.309018 0.000000
      CHANNELS 3 Yrotation Xrotation Zrotation
      JOINT LeftShoulder
      {
       OFFSET 12.309578 0.000000 0.000000
       CHANNELS 3 Yrotation Xrotation Zrotation
       JOINT LeftElbow
       {
        OFFSET 26.817880 0.000000 0.000000
        CHANNELS 3 Yrotation Xrotation Zrotation
        JOINT LeftWrist
        {
         OFFSET 22.046493 0.000000 0.005727
         CHANNELS 3 Yrotation Xrotation Zrotation
         End Site
         {
          OFFSET 16.516461 0.000000 0.000000
         }
        }
       }
      }
     }
    }
   }
  }
 }
 JOINT RightHip
 {
  OFFSET -10.582077 0.125794 0.012836
  CHANNELS 3 Yrotation Xrotation Zrotation
  JOINT RightKnee
  {
   OFFSET 0.000000 -43.218284 0.001140
   CHANNELS 3 Yrotation Xrotation Zrotation
   JOINT RightAnkle
   {
    OFFSET 0.000000 -37.342314 0.092095
    CHANNELS 3 Yrotation Xrotation Zrotation
    JOINT RightToe
    {
     OFFSET 0.000000 -11.963287 17.799678
     CHANNELS 3 Yrotation Xrotation Zrotation
     End Site
     {
      OFFSET 0.000000 -1.355498 5.291052
     }
    }
   }
  }
 }
 JOINT LeftHip
 {
  OFFSET 10.582077 0.125794 0.012836
  CHANNELS 3 Yrotation Xrotation Zrotation
  JOINT LeftKnee
  {
   OFFSET 0.000000 -43.218284 0.001140
   CHANNELS 3 Yrotation Xrotation Zrotation
   JOINT LeftAnkle
   {
    OFFSET 0.000000 -37.342314 0.092095
    CHANNELS 3 Yrotation Xrotation Zrotation
    JOINT LeftToe
    {
     OFFSET 0.000000 -11.963287 17.799678
     CHANNELS 3 Yrotation Xrotation Zrotation
     End Site
     {
      OFFSET 0.000000 -1.355498 5.291052
     }
    }
   }
  }
 }
}
MOTION
Frames: 7
Frame Time: 0.016667
0.000000 92.231762 0.000000 0.000000 -5.826342 0.000000 0.000000 11.116423 0.000000 0.000000 -5.290081 0.000000 0.000000 0.000000 0.000000 0.000000 0.000000 0.000000 0.000000 12.665069 0.000000 0.000000 0.575450 0.000000 0.000000 0.000000 0.000000 0.000000 0.000000 0.000000 2.337306 0.000000 0.000000 -2.337306 0.000000 0.000000 0.000000 0.000000 0.000000 0.000000 0.000000 0.000000 -2.337306 0.000000 0.000000 2.337306 0.000000 0.000000 0.000000 8.578828 0.000000 0.000000 1.905768 0.000000 0.000000 -4.658254 0.000000 0.000000 0.000000 0.000000 0.000000 8.578828 0.000000 0.000000 1.905768 0.000000 0.000000 -4.658254 0.000000 0.000000 0.000000 0.000000
-100.345308 94.048936 -145.401725 -168.346995 6.197568 -0.057400 0.446063 -5.256573 -0.985253 -0.177923 -1.884636 -0.771838 -0.177923 -1.884636 -0.771838 -0.135812 -1.413255 -0.579375 3.828989 24.028646 2.333895 6.282121 8.413122 3.219182 -9.785139 12.236116 10.435313 20.534584 -10.782117 70.044372 -67.407754 33.485849 50.946005 -5.121616 -0.724245 -10.955678 2.545937 14.219802 -7.516748 5.965864 -17.802899 -72.574241 85.347561 10.798343 -36.491630 17.785951 -8.686008 1.198838 14.199034 2.072211 -6.791615 7.963392 -26.173360 -1.273151 1.775136 -0.479178 4.403688 0.987168 -0.655842 0.726385 10.814331 -4.849859 -5.476036 3.443191 2.600054 -1.072879 4.033648 -6.157533 -7.930429 -0.145958 0.892691 0.235898
-100.432104 94.042121 -145.320995 -168.314030 6.119418 -0.077649 0.460516 -5.288837 -0.929291 -0.172966 -1.896438 -0.753629 -0.172966 -1.896438 -0.753629 -0.132052 -1.422118 -0.565707 3.752367 24.099477 2.329184 6.146364 8.544303 3.232580 -9.818289 12.220414 10.451648 20.220339 -10.757042 70.309270 -67.658086 33.370690 50.704659 -5.121112 -0.779561 -10.907141 2.467734 14.226209 -7.516808 5.958523 -17.887662 -72.650368 85.256535 10.971435 -36.548273 17.898235 -8.590862 1.185584 14.396432 2.155960 -6.847099 7.786928 -26.179530 -1.227068 1.699667 -0.483531 4.392166 1.011002 -0.642813 0.753848 10.813587 -4.734672 -5.453541 3.500909 2.490544 -1.116374 3.826258 -6.154040 -7.986629 -0.153500 0.894980 0.261655
-100.538631 94.032602 -145.233937 -168.263469 6.004341 -0.080001 0.443720 -5.286813 -0.893084 -0.168338 -1.905676 -0.739322 -0.168338 -1.905676 -0.739322 -0.128548 -1.429056 -0.554965 3.674644 24.162330 2.329602 6.007325 8.660578 3.255058 -9.825279 12.200379 10.473505 19.957061 -10.751194 70.545905 -67.806880 33.273674 50.536308 -5.126353 -0.817202 -10.881377 2.424015 14.225966 -7.506248 6.031643 -17.941247 -72.693297 85.167502 11.155428 -36.594581 18.052019 -8.506951 1.155450 14.560565 2.275420 -6.903409 7.578766 -26.177277 -1.166799 1.612411 -0.518507 4.356725 1.049582 -0.607797 0.798006 10.809738 -4.551312 -5.457564 3.486992 2.339250 -1.162591 3.672430 -6.128438 -8.017715 -0.154057 0.892699 0.275010
-100.637983 94.024805 -145.149288 -168.233121 5.879278 -0.092172 0.422563 -5.271652 -0.854087 -0.162266 -1.912629 -0.727018 -0.162266 -1.912629 -0.727018 -0.123964 -1.434281 -0.545721 3.607443 24.213661 2.331762 5.886679 8.755524 3.277524 -9.816325 12.173056 10.494263 19.783407 -10.754393 70.735559 -67.848343 33.183149 50.475900 -5.109915 -0.841401 -10.865770 2.411950 14.218428 -7.490091 6.159273 -17.953114 -72.685676 85.078006 11.352674 -36.660140 18.230165 -8.421415 1.094201 14.689618 2.398853 -6.938655 7.428172 -26.169451 -1.121004 1.513265 -0.558195 4.310409 1.112547 -0.580560 0.853191 10.842339 -4.376399 -5.474428 3.405870 2.189240 -1.202164 3.613184 -6.075511 -8.018971 -0.149086 0.888260 0.271842
-100.731444 94.019709 -145.072863 -168.198445 5.727556 -0.103898 0.375043 -5.219196 -0.820755 -0.155757 -1.917981 -0.716340 -0.155757 -1.917981 -0.716340 -0.119056 -1.438306 -0.537693 3.557744 24.252058 2.334822 5.797121 8.826545 3.296722 -9.794430 12.138319 10.517837 19.716886 -10.763209 70.861532 -67.788315 33.091073 50.531374 -5.079691 -0.847690 -10.833477 2.418367 14.203627 -7.465549 6.336399 -17.931511 -72.642574 85.007840 11.540052 -36.739373 18.380686 -8.353251 1.010971 14.750090 2.533157 -6.942827 7.353377 -26.138651 -1.103783 1.453188 -0.618329 4.274188 1.180205 -0.553670 0.904112 10.857786 -4.198473 -5.478906 3.301433 2.100834 -1.234073 3.575301 -6.049430 -8.020472 -0.143855 0.879088 0.258765
-100.795264 94.019994 -145.003743 -168.217793 5.628461 -0.147827 0.365516 -5.202310 -0.761127 -0.149749 -1.924770 -0.706030 -0.149749 -1.924770 -0.706030 -0.114526 -1.443407 -0.529945 3.526744 24.275084 2.334456 5.741834 8.869207 3.304564 -9.771868 12.098640 10.537817 19.752770 -10.780550 70.907844 -67.640716 33.009967 50.695384 -5.045727 -0.839400 -10.788443 2.438354 14.181880 -7.435781 6.555197 -17.865969 -72.586155 84.964681 11.665795 -36.790423 18.475268 -8.316650 0.917853 14.819684 2.567732 -6.908105 7.320055 -26.056004 -1.102353 1.388044 -0.666762 4.230425 1.239208 -0.549766 0.953391 10.904257 -4.103171 -5.457854 3.264344 2.052836 -1.262281 3.522496 -6.031130 -8.012933 -0.134594 0.867882 0.233997
